<svg width="53" height="53" viewBox="0 0 53 53" fill="none" xmlns="http://www.w3.org/2000/svg">
<path d="M28.8187 9.14235V9.00985C28.8187 8.39152 29.0174 7.83944 29.4149 7.3536C29.8124 6.86777 30.3203 6.62485 30.9387 6.62485C31.557 6.62485 32.1091 6.8236 32.5949 7.2211C33.0808 7.6186 33.3458 8.1486 33.3899 8.8111C33.4341 9.4736 33.2353 10.0257 32.7937 10.4674C32.352 10.909 31.822 11.1299 31.2037 11.1299L30.8062 11.2624L30.9387 11.4611L30.8062 12.1899L30.5412 14.3099C30.6295 14.3982 30.6737 14.4865 30.6737 14.5749L30.4087 15.8999C30.3203 16.0765 30.232 16.209 30.1437 16.2974L30.0112 16.8274C29.8345 17.534 29.6799 18.1082 29.5474 18.5499C29.4149 18.9915 29.3045 19.3449 29.2162 19.6099V19.8748C29.1278 20.3165 29.0616 20.6699 29.0174 20.9349C28.9733 21.1998 28.8187 21.6415 28.5537 22.2598C28.377 22.6132 28.377 23.1873 28.5537 23.9823L28.6862 24.1148C28.6862 24.3798 28.7966 24.689 29.0174 25.0423C29.2383 25.3957 29.3487 25.7048 29.3487 25.9698C29.437 27.7365 29.3045 29.2382 28.9512 30.4748L29.2162 31.2698C30.2762 31.7998 30.5853 32.374 30.1437 32.9923L30.8062 33.2573C31.8662 33.7873 32.617 34.2511 33.0587 34.6486C33.5003 35.0461 33.942 35.4657 34.3837 35.9073C34.737 35.9957 35.002 36.1282 35.1787 36.3048L35.5762 36.4373C37.4312 37.674 39.2862 39.1757 41.1412 40.9423L41.6712 41.3398V41.4723L41.5387 41.7373L41.9362 42.0023H42.0687C42.3337 42.179 42.5103 42.2673 42.5987 42.2673H42.7312C42.8195 42.2673 42.9078 42.2232 42.9962 42.1348L43.2612 42.0023C43.4378 41.8257 43.6145 41.6932 43.7912 41.6048H44.3212C44.4095 41.6048 44.4095 41.649 44.3212 41.7373L43.7912 42.0023L43.1287 42.7973H44.0562L44.9837 42.9298C45.2487 42.8415 45.4695 42.7532 45.6462 42.6648L46.3087 42.2673C46.5737 42.179 46.8387 42.2673 47.1037 42.5323H47.2362C47.3245 42.6207 47.2803 42.7532 47.1037 42.9298L45.5137 44.3873C45.072 44.7407 44.6745 44.9615 44.3212 45.0498L42.5987 46.2423C42.5103 46.3307 42.422 46.3307 42.3337 46.2423L41.9362 45.7123L41.6712 45.1823L41.3399 44.7186L40.9424 44.1886L40.6112 43.7911L40.3462 43.4598L39.8162 43.0623C39.6395 43.0623 39.4628 43.0182 39.2862 42.9298L37.5637 41.6048C37.2987 41.6048 36.9895 41.4723 36.6362 41.2073C35.3112 40.059 34.4278 39.3523 33.9862 39.0873L33.1912 38.5573L31.6012 38.2923C31.0712 38.204 30.3645 37.939 29.4812 37.4973L28.4212 36.9673C27.7145 36.614 27.2287 36.4373 26.9637 36.4373L26.4337 36.1723C26.0803 36.084 25.8153 35.9957 25.6387 35.9073L25.3737 35.6423C25.197 35.6423 25.0203 35.6865 24.8437 35.7748L22.1937 37.0998L18.8812 38.5573C17.9978 39.264 17.1587 39.8382 16.3637 40.2798L14.9062 40.9423L12.6537 42.5323C12.477 42.709 12.3003 42.709 12.1237 42.5323L11.8587 42.7973C11.5937 42.8857 11.417 42.9298 11.3287 42.9298L10.7987 43.1948V43.4598H10.5337L10.2687 43.8573C10.092 44.2107 9.91535 44.4094 9.73868 44.4536C9.56202 44.4978 9.4516 44.564 9.40743 44.6523C9.36327 44.7407 9.3191 44.8069 9.27493 44.8511L9.00993 45.1161L8.61243 45.3811L8.01618 45.3148L7.22118 45.4473L6.69118 45.5798C6.24952 45.6682 5.89618 45.6019 5.63118 45.3811C5.36618 45.1603 5.14535 44.829 4.96868 44.3873C4.79202 44.1223 4.88035 43.9015 5.23368 43.7248L5.36618 43.5923C5.45452 43.504 5.58702 43.4598 5.76368 43.4598H6.55868L7.61868 43.0623L8.14868 42.9298C8.14868 42.7532 8.19285 42.6207 8.28118 42.5323C8.36952 42.444 8.50202 42.3998 8.67868 42.3998V42.2673C8.59035 42.0907 8.54618 41.914 8.54618 41.7373C8.45785 41.5607 8.43577 41.4282 8.47993 41.3398C8.5241 41.2515 8.56827 41.2073 8.61243 41.2073H8.67868L8.81118 41.6048C8.89952 42.0465 9.03202 42.179 9.20868 42.0023L9.34118 41.7373C9.42952 41.5607 9.56202 41.4723 9.73868 41.4723L10.0037 41.7373L10.2687 41.4723L10.1362 41.3398C10.1362 41.2515 10.1803 41.2073 10.2687 41.2073L10.7987 40.6773C11.2403 40.1473 11.7703 39.6615 12.3887 39.2198C13.6253 38.2482 14.9503 37.4973 16.3637 36.9673C16.8053 36.5257 17.2912 36.3048 17.8212 36.3048C18.1745 35.6865 18.7045 35.024 19.4112 34.3173C20.0295 33.8757 20.4712 33.5665 20.7362 33.3898C20.9128 33.0365 21.1337 32.8598 21.3987 32.8598H21.5312L21.7962 32.5948C21.9728 32.5065 22.1053 32.4182 22.1937 32.3298V31.6673C22.1937 31.2257 22.2378 30.8723 22.3262 30.6073C22.4145 30.3423 22.6353 30.2098 22.9887 30.2098L23.5187 29.6798C23.342 29.3265 23.2537 28.929 23.2537 28.4873H23.1212C22.9445 28.2223 22.8562 27.9573 22.8562 27.6923C22.5912 27.2507 22.4145 26.8973 22.3262 26.6323H21.9287C21.8403 26.8973 21.6195 27.074 21.2662 27.1623L21.1337 27.4273C20.7803 28.0457 20.4712 28.5094 20.2062 28.8186C19.9412 29.1278 19.4553 29.5032 18.7487 29.9448C18.307 30.3865 17.9978 30.8723 17.8212 31.4023C17.7328 31.6673 17.7328 31.9323 17.8212 32.1973L17.6887 32.4623H17.8212C17.8212 32.639 17.8653 32.7273 17.9537 32.7273H18.0862C18.2628 32.8157 18.3512 32.9261 18.3512 33.0586C18.3512 33.1911 18.2187 33.2353 17.9537 33.1911C17.6887 33.1469 17.4899 33.0586 17.3574 32.9261C17.2249 32.7936 17.1145 32.7273 17.0262 32.7273L16.6287 33.1248C16.452 33.3898 16.2753 33.5003 16.0987 33.4561C15.922 33.4119 15.8778 33.3457 15.9662 33.2573L16.0987 33.1248C16.187 32.9482 16.187 32.8598 16.0987 32.8598L15.0387 33.1248C14.9503 33.2132 14.8399 33.2132 14.7074 33.1248C14.5749 33.0365 14.597 32.9482 14.7737 32.8598L15.4362 32.5948C15.4362 32.5065 15.392 32.4623 15.3037 32.4623C14.9503 32.639 14.597 32.6832 14.2437 32.5948L13.5812 32.4623L13.4487 32.3298C13.4487 32.2415 13.4928 32.1973 13.5812 32.1973C13.9345 32.2857 14.3762 32.2415 14.9062 32.0648L15.8337 31.6673L16.8937 30.4748L17.0262 30.2098C17.3795 29.5032 17.7549 28.8628 18.1524 28.2886C18.5499 27.7144 18.9695 27.2507 19.4112 26.8973L19.5437 26.3673C19.7203 26.014 19.897 25.7048 20.0737 25.4398C20.2503 25.1748 20.4712 24.8215 20.7362 24.3798L21.1337 23.8498C21.487 23.3198 21.8845 23.0548 22.3262 23.0548L22.7237 22.6573C22.812 22.569 22.8562 22.4365 22.8562 22.2598L23.1212 21.9948L22.9887 21.8623C22.4587 21.4207 22.1937 21.0232 22.1937 20.6698C22.1053 20.0515 22.3041 19.5215 22.7899 19.0799C23.2758 18.6382 23.7616 18.4394 24.2474 18.4836C24.7333 18.5278 25.1087 18.6823 25.3737 18.9473L25.6387 19.2124C25.727 19.2124 25.7712 19.2565 25.7712 19.3449L26.3012 19.6099V20.0074C26.4778 20.184 26.5662 20.3165 26.5662 20.4048C26.7428 20.1398 27.0078 19.8307 27.3612 19.4774L28.0237 17.3573C28.0237 17.004 28.112 16.6507 28.2887 16.2974L28.5537 15.8999V15.6349L28.9512 14.0449H29.2162L29.6137 12.4549C29.702 12.1899 29.702 11.8807 29.6137 11.5274L29.0837 10.2024L28.8187 9.14235Z" fill="white"/>
</svg>
