<svg width="69" height="24" viewBox="0 0 69 24" fill="none" xmlns="http://www.w3.org/2000/svg">
<g clip-path="url(#clip0_4_29)">
<path d="M7.52849 23.9902C5.49492 23.9105 3.83115 23.3615 2.53023 22.3418C2.28195 22.147 1.69033 21.5629 1.49186 21.3165C0.964313 20.662 0.60565 20.025 0.366423 19.3183C-0.369696 17.1428 0.00915496 14.288 1.45007 11.1549C2.68379 8.4726 4.58747 5.81228 7.90873 2.12777C8.39797 1.5856 9.8549 0 9.8643 0C9.86781 0 9.78839 0.135709 9.68846 0.300977C8.82489 1.72819 8.08598 3.4093 7.68344 4.8647C7.03681 7.19999 7.11481 9.20408 7.91187 10.7581C8.4617 11.8287 9.40432 12.756 10.4643 13.2686C12.3199 14.1657 15.0367 14.2399 18.3545 13.4857C18.5829 13.4335 29.9019 10.4688 43.508 6.8973C57.1141 3.32548 68.2483 0.405419 68.25 0.407824C68.2539 0.410916 36.6392 13.7589 20.2275 20.6837C17.6284 21.78 16.9334 22.0569 15.7115 22.4802C12.588 23.5625 9.79014 24.0789 7.52849 23.9902Z" fill="white"/>
</g>
<defs>
<clipPath id="clip0_4_29">
<rect width="68.25" height="24" fill="white"/>
</clipPath>
</defs>
</svg>
